<svg xmlns="http://www.w3.org/2000/svg" viewBox="0 0 300 300"><defs><style>.cls-1{fill:#47c0eb;}.cls-1,.cls-10,.cls-11,.cls-12,.cls-13,.cls-14,.cls-15,.cls-16,.cls-17,.cls-18,.cls-19,.cls-2,.cls-20,.cls-21,.cls-22,.cls-23,.cls-24,.cls-25,.cls-26,.cls-27,.cls-28,.cls-29,.cls-3,.cls-4,.cls-5,.cls-6,.cls-7,.cls-8,.cls-9{fill-rule:evenodd;}.cls-2{fill:#02010d;}.cls-3{fill:#0058a8;}.cls-4{fill:#4dc1e9;}.cls-5{fill:#093b6f;}.cls-6{fill:#0056a7;}.cls-7{fill:#7386a2;}.cls-8{fill:#152748;}.cls-9{fill:#031129;}.cls-10{fill:#494c4c;}.cls-11{fill:#717172;}.cls-12{fill:#feee00;}.cls-13{fill:#ffeb00;}.cls-14{fill:#fff;}.cls-15{fill:#0055a6;}.cls-16{fill:#b2a516;}.cls-17{fill:#b0b1b0;}.cls-18{fill:#4bbfdf;}.cls-19{fill:#80cde9;}.cls-20{fill:#0053a5;}.cls-21{fill:#093b71;}.cls-22{fill:#0096b3;}.cls-23{fill:#4dc1eb;}.cls-24{fill:#9d8b37;}.cls-25{fill:#e7c46b;}.cls-26{fill:#fffffc;}.cls-27{fill:#41bfea;}.cls-28{fill:#0c3a70;}.cls-29{fill:#ffe700;}</style></defs><title>Asset 3</title><g id="Layer_2" data-name="Layer 2"><g id="Layer_2-2" data-name="Layer 2"><path class="cls-1" d="M44.08,291.25,52.71,300c106.68-8.12,164.11-12.3,164.11-12.3,4.47-4.81,4.67-11.89,5.24-20,.14-8.46,0-12.09,0-12.09,16.72-1.36,27.63-2,27.63-2,19-2.41,9.12-43.68,14-60.48l-8.93.65,2.19-3.76-5.54,2.88-4.26-9a62.17,62.17,0,0,0-6.16-8.62A74.24,74.24,0,0,1,242.14,164c.16-1,.23-1.43.23-1.43h1.49l2.12,1.77,44.76-2.62a9.92,9.92,0,0,0,8.36-5.9A10.53,10.53,0,0,0,298,145.42a10,10,0,0,0-9.4-4.17l-43,2.71q6.63-24.95,4.68-75.26-51.09,1.71-70.27,5.41l-1.78-4.39q14.4-32.8.47-43.21-9-12.47-9.83-17.08,1-10.06-8-9.39-40.76,1.88-55.5,5.84Q99.78,7.67,91.62,22.62a84.34,84.34,0,0,1-1.78,14.5,27.49,27.49,0,0,1,2.87-.87c-1.08,9.48-1.15,15.1-3.67,17.57,1.36,6.18,1,9.85.78,10.65C86.39,79.07,85.74,86,85.74,86c3.38,2.82,4,4.65,4,4.65Q40.67,106,2.44,133.13,26.64,182,31.6,192.49q-.37,8.58.24,7.27l5.81,3c2,3.27,3,4.91,3,4.91C15.58,197.34,0,193.84,0,193.84c7,8.88,15.26,13.44,18.58,17.08Q6.22,216,6.13,236.46L4.94,257.34l11.75,11.59c22.85-1.68,27.81-1.85,27.81-1.85Z"/><path class="cls-2" d="M194.92,262q54-90.58,51.75-186.77-151.57-2-238.46,58Q38.14,208.64,79.93,262Z"/><path class="cls-3" d="M164.69,262c31.6-48.47,52.64-102.17,56-161.35C159,102,93.41,112.27,39.68,143.19,58.29,186.06,82.1,227.2,113,262H89C58.5,224.39,35.06,180.8,16.81,135.67,81.1,93,163.64,81.56,239.3,82c.45,66.06-19.86,126-53,180Z"/><path class="cls-4" d="M217,133.31a293.47,293.47,0,0,0,3.56-30.51L227.07,96l-3.64,9.67q-3.19,20.86-3.46,24.52,3.79,14,3.79,14Z"/><path class="cls-2" d="M62.37,141.6Q47.05,162.41,43.8,178.8,36,192.35,34,198l21.59,10,30.78-4.32,37.73,34q5.3,5.48,14.77,2.27,42.43-15.9,52.89-24.45-2.55-11.7-5.17-16.41a210.55,210.55,0,0,0,50.36,1.11c5.4-2.5,8.66-4.85,9.75-7.06q-5.92-6.56-5.54-8.73-4.2-6.17-7-8.35l-4-13.43,3-3.08,10-.58.86,1.12,44.55-1.87a7.21,7.21,0,0,0,5.72-7.64A7.62,7.62,0,0,0,287,144l-43,2.79c-.82.57-1.14,1-1,1.41l-15,1.41-14.47-24.48-2.42-.39-2,.25q-2.75-15.06-15.81-24l-4.78-7.2q-23.78-2.1-43.42,9.39Q125,114,113,103.58L98.55,91.47,80.76,104l2,2.1L70.51,119.85a4.75,4.75,0,0,0,1.26,3Q63.36,136.33,62.37,141.6Z"/><path class="cls-5" d="M98.11,95l-10.78,8.5q34.73,22.61,49.43,19.22c-5.38-.83-8.44-1.38-9.18-1.63l-5.12-5.33q8.48,1.53,12.07-.06l-3.36-.68L144.5,111q12.83-2.43,18.17-3.28-8.82,3.74-12.59,7.6,36.85-12.75,49.25-5.93a39.65,39.65,0,0,0-6.08-6q-1.92-1.08-14-3.56,2.64-.06,9.5.1l-1.94-2.74q-13-1.74-27.71,4a135.46,135.46,0,0,1-32,11.94q-9.56,2.13-29.06-18Zm70.36,9.33c.43-.7,2.95-.63,7.55.23q-6.17.8-7.55-.23Zm7.71-3q-1-1.57,9.75,1.73Q182.32,102.53,176.18,101.32Z"/><path class="cls-3" d="M136.76,122.74q-14.7,3.39-49.43-19.22l21.38,19.89,17,5.62,21.06-8.51-16.71,9.17q39-16.64,59-20.53a16,16,0,0,1,10.23.22q-12.39-6.82-49.25,5.93,3.76-3.86,12.59-7.6-5.34.86-18.17,3.28L131.17,115l3.36.68q-3.6,1.59-12.07.06l5.12,5.33c.74.25,3.8.8,9.18,1.63Zm6.82-4.51q4.5-5.36,5.49-4.62Q150.26,114,143.58,118.23Z"/><path class="cls-4" d="M189.1,109.16q-20.06,3.9-59,20.53l16.71-9.17L125.72,129l-17-5.62L87.33,103.52l-1.41,1.11q14.43,13.77,34.68,32Q163.88,116,185,111.46A13.16,13.16,0,0,1,189.1,109.16Z"/><path class="cls-5" d="M181.14,114.87q-12.46,4-61.37,23.79l-34.33-31-2.36,4q-3.77,9.52,7.58,21.93a15,15,0,0,1-3-6.84q6.6,7.37,19.31,14.08l1.13-.53.15,1.2c1.14.58,2.31,1.16,3.52,1.74l1.57-2c-.21-.25,1.5-.17,5.11.26A10.87,10.87,0,0,1,117,144q22.62-5.06,57-21.29Z"/><path class="cls-3" d="M174,122.75Q139.6,139,117,144c-.5.74-1.14,1.65-1.9,2.73l17.05-3.71q15.51-7.16,23-9.38l-6.79,3.86c-2.74,2.06-3.81,3-3.19,2.85l16.75-3,15.4-7.27-11,7.6-2.45,4.54q9.91-1.43,10-1.29a114.8,114.8,0,0,0,11.7-17.51L162.38,134l4.46-3.41,7.15-7.88ZM158.92,135.6q6.62-7.86,10-9.8-5.1,7.14-10,9.8Zm-3.66,1.25q4-5.4,6.17-6.2A17.1,17.1,0,0,1,155.26,136.85Z"/><path class="cls-5" d="M182.58,119.35l-15.74,11.28L162.38,134l23.14-10.57A8.55,8.55,0,0,1,182.58,119.35Z"/><path class="cls-5" d="M177.29,130.13l-15.4,7.27L158,139.3l.91,0Q155.28,142,137,146.5l-2.65,1.78,33.86-1.12q2.85-2.83,5.6-6.16v0q-.09-.14-10,1.29l2.45-4.54Z"/><path class="cls-4" d="M161.89,137.4l-16.75,3c-.62.16.45-.79,3.19-2.85l6.79-3.86q-7.49,2.22-23,9.38l-17.05,3.71-.78,1.1q8.88-.56,43.71-8.57Z"/><path class="cls-4" d="M99,141.34a38.56,38.56,0,0,1-21.53-20l5.63-9.59a16,16,0,0,1,2.36-4L73.79,120.06a45.69,45.69,0,0,0,12.6,16.47A39,39,0,0,0,99,141.34Z"/><path class="cls-6" d="M77.45,121.31a38.56,38.56,0,0,0,21.53,20,39,39,0,0,1-12.59-4.81,76.55,76.55,0,0,0,14.67,9.65l-.22-2.36,6.15-2.93q-12.7-6.72-19.31-14.08a15,15,0,0,0,3,6.84q-11.34-12.41-7.58-21.93Z"/><path class="cls-7" d="M108.27,141.56l.7,5.24,2.82-3.5C110.58,142.72,109.41,142.14,108.27,141.56Z"/><path class="cls-8" d="M94.63,145.93a57.32,57.32,0,0,1-16.71-14q.67,11.52,4.8,14.52-4.55-2.05-9.57-9.07l-3,6.12A55.89,55.89,0,0,0,76.92,147q11.25,2.08,14.57,1Z"/><path class="cls-9" d="M94.63,145.93l-3.14,2.13q-3.31,1-14.57-1a152.33,152.33,0,0,0,19.92,6.82l3.06-5.29C98.08,147.75,96.33,146.88,94.63,145.93Z"/><path class="cls-6" d="M82.72,146.45q-4.12-3-4.8-14.52A60.4,60.4,0,0,1,73.08,125l-6.85,15.54a24.18,24.18,0,0,0,3.88,2.94l3-6.12Q78.18,144.4,82.72,146.45Z"/><path class="cls-10" d="M77.57,150.53,65.75,143.7l-.07,4.92a92.33,92.33,0,0,0-9.17,17.48Q62.47,156,77.57,150.53Z"/><path class="cls-11" d="M56.51,166.1a92.33,92.33,0,0,1,9.17-17.48l.07-4.92Q51.16,163.31,49.25,178q5.51-5,8.87-6.55c.6-.67,2.9-.55,6.88.34l2.89-14L56.51,166.1Zm.89,3.83q3.83-7.26,7.64-7.74A104.33,104.33,0,0,0,57.4,169.93Z"/><polygon class="cls-12" points="79.02 160.47 78.53 163.56 105.82 158.24 201.27 155.4 201.3 152.9 107.14 154.92 79.02 160.47"/><path class="cls-13" d="M76.28,169.61l1.48-8.47q-1.33-1.32-3.09-3.13l-3,11.43Z"/><polygon class="cls-12" points="68.62 172.88 72.39 158.26 69.98 158.8 67.11 172.62 68.62 172.88"/><polygon class="cls-14" points="69.98 158.8 72.39 158.26 72.92 156.18 70.32 157.19 69.98 158.8"/><path class="cls-14" d="M74.67,158q1.76,1.81,3.09,3.13l.33-1.92-3-2.8Z"/><polygon class="cls-11" points="106.59 152.95 106.31 144.54 103.29 145.64 102.74 153.56 106.59 152.95"/><polygon class="cls-14" points="103.29 145.64 106.31 144.54 106.59 152.95 107.31 152.96 107.06 142.6 103.37 144.52 103.29 145.64"/><polygon class="cls-11" points="113.52 142.74 110 148.45 111.28 148.56 114.99 143 113.52 142.74"/><polygon class="cls-14" points="114.99 143 111.28 148.56 111.98 148.62 116.11 142.61 113.76 142.35 113.52 142.74 114.99 143"/><polygon class="cls-10" points="201.49 148.06 108.8 150.67 109.36 152.97 201.52 150.85 201.49 148.06"/><path class="cls-9" d="M188.2,131.91q-5.77,9.43-6.65,14.88l20-.4q-7.62-11.59-3.9-20.53a16,16,0,0,1-8,.68q-3.54,1.08-9.78,11.06a21.42,21.42,0,0,1,.66,3.56Q186.13,132.88,188.2,131.91Z"/><path class="cls-8" d="M197.67,125.86q-3.72,8.94,3.9,20.53L202.82,127l4.14-.16q-3.32-1.05-2.74-8.55L203,115.59Q203.15,123.62,197.67,125.86Z"/><path class="cls-15" d="M204.22,118.26q-.57,7.5,2.74,8.55-.17-9.89-3.93-11.22Z"/><path class="cls-11" d="M207.82,131.26l-3-.15-1.17,18.55,2.52.2h.07Q206.93,149.38,207.82,131.26Z"/><path class="cls-14" d="M207.82,131.26q-.88,18.12-1.54,18.61l2.1.17,1-21.42-4.39.22-.14,2.27Z"/><path class="cls-11" d="M211.38,129.42l-.77,23.23a13.93,13.93,0,0,1,1.65-.73l.59-22.14Z"/><path class="cls-8" d="M214.76,136.24q-.42,15.45-.39,14.68l9.07-.45Q221.69,147,214.76,136.24Z"/><path class="cls-3" d="M214.76,136.24q6.93,10.77,8.68,14.23l1.66-.08-10.24-17.6C214.82,134,214.79,135.15,214.76,136.24Z"/><path class="cls-13" d="M205,169.82l1-15.72a19.43,19.43,0,0,1-2.24,0l-.2,15.85Z"/><path class="cls-14" d="M206,154.1l-1,15.72,2.45-.13.47-17.7-4.13-.24,0,2.3A19.43,19.43,0,0,0,206,154.1Z"/><polygon class="cls-11" points="210.14 158.28 209.76 168.92 211.44 168.38 211.76 158.91 210.14 158.28"/><path class="cls-8" d="M214.09,159.43l-.31,6q12.9-6.36,13.61-6.53Z"/><polygon class="cls-11" points="212.87 157.35 242.72 156.22 242.4 155.14 212.48 156.78 212.87 157.35"/><path class="cls-11" d="M211.58,154.94l30.85-1.34.16-1.28-30.68,1.8A1.38,1.38,0,0,0,211.58,154.94Z"/><path class="cls-14" d="M211.91,154.12l30.68-1.8.16-1.28L214.44,153A4.29,4.29,0,0,0,211.91,154.12Z"/><path class="cls-16" d="M144.33,166.15,100.78,168l-.39,6,41.37-1.43C142.44,170.79,143.29,168.66,144.33,166.15Z"/><path class="cls-13" d="M100.78,168l43.55-1.86c1-2.3,2.07-4.92,3.33-7.84l-41.72,1.33-4.66.65Z"/><path class="cls-14" d="M144.33,166.15c-1,2.51-1.89,4.64-2.57,6.41l1.42-.05,2.73-6.43Z"/><path class="cls-14" d="M144.33,166.15l1.58-.07,3.32-7.82-1.57.05C146.4,161.23,145.29,163.85,144.33,166.15Z"/><path class="cls-16" d="M83.63,172.27l12.49-.15-1.85.64a14.62,14.62,0,0,1-4.48.37l-6.16-.86Zm14-4-20.09,1.41L77,173.2l14.84,1.51,5.53-.32Z"/><polygon class="cls-13" points="77.53 169.73 97.63 168.31 97.97 160.79 78.38 164.46 77.53 169.73"/><path class="cls-13" d="M96.12,172.12l-12.49.15,6.16.86a14.62,14.62,0,0,0,4.48-.37Z"/><polygon class="cls-16" points="75.66 173.17 76.28 169.61 71.71 169.44 70.84 172.79 75.66 173.17"/><path class="cls-13" d="M151.37,158.44,148.08,166l22.51-.52q2.72-6.47,7-4.37,6.92-5.2,9.78-1.61l2-1.55q3.24-1.38,4.59,1.73.36-.37,1.74-2,5.49-2.17,3.88,4.6c-.58.76-1.17,3.18-1.75,7.27,0,.12,1.09.12,3.35,0l.2-12.93Z"/><path class="cls-16" d="M170.59,165.5l-22.51.52-2.64,6.09,21.74-1a18.09,18.09,0,0,1,1-4.06,20.18,20.18,0,0,0,.36,5.49A38.17,38.17,0,0,1,170.59,165.5Z"/><path class="cls-10" d="M160.19,179.71l-16.67,1.42a39.63,39.63,0,0,0,2.36,7.84q4.69-2.67,15.2-5.51C160.81,182.52,160.52,181.27,160.19,179.71Z"/><polygon class="cls-11" points="143.25 178.99 165.63 177.63 166.64 175.7 144.32 176.41 143.25 178.99"/><path class="cls-14" d="M160.19,179.71c.33,1.56.62,2.81.89,3.75l1.57-.42-.58-3.49Z"/><polygon class="cls-10" points="144.32 176.41 166.64 175.7 167.13 174.77 167.1 173.55 145.16 174.38 144.32 176.41"/><polygon class="cls-10" points="142.41 174.55 139.02 174.64 138.32 176.86 141.03 176.99 141.67 175.4 142.41 174.55"/><path class="cls-11" d="M141,177l-2.71-.13-1.59,5.06q-.43,3.41-7.38,3.2a4.34,4.34,0,0,1,2.05,1.2s2.07-.15,6.14-.54Z"/><path class="cls-11" d="M134.49,181.53A40.18,40.18,0,0,0,120.32,177q1.05,10.65-5,21.47a22,22,0,0,1,8.25,9.24c.89-.95,1.27-1.62,1.14-2q-.66-3.18-5.11-7.15a.84.84,0,0,1,.47-1.3,1.43,1.43,0,0,1,.65-.19q5.25,2.74,6.89,5.93c.78-1.13.81-2.6.11-4.4a28.49,28.49,0,0,0-7.83-5.37c-.51-.56-.43-1,.26-1.2.12-.78.55-1,1.28-.73q7.95,3.8,8.75,5.4a1.55,1.55,0,0,0,1.49-.12q.34-4.31-3.7-7.2l-6-3.68c-1.09-.82-1.22-1.54-.4-2.16a2,2,0,0,1,.82-.61l4.05,1,6.45-.19c.81.07,1.22-.21,1.24-.84Z"/><path class="cls-14" d="M132.5,195.44q1.37-5.88-10.72-11c-.33-.3-.4-.59-.22-.87-.82.62-.69,1.34.4,2.16l6,3.68q4,2.9,3.7,7.2A2.72,2.72,0,0,0,132.5,195.44Z"/><path class="cls-14" d="M129.42,202q1.05-4.78-9.31-9.74a.78.78,0,0,1,0-.16c-.69.24-.77.64-.26,1.2a28.49,28.49,0,0,1,7.83,5.37c.7,1.8.67,3.27-.11,4.4C128.51,203.37,129.12,203,129.42,202Z"/><path class="cls-14" d="M125.73,204c-2.43-3.45-4.36-5.45-5.79-6-.15-.32-.11-.56.11-.71a.84.84,0,0,0-.47,1.3q4.44,4,5.11,7.15c.13.38-.25,1.05-1.14,2l-.74.75a2.23,2.23,0,0,0,.93,0C125.71,207.36,126.37,205.88,125.73,204Z"/><path class="cls-10" d="M123.55,207.73a22,22,0,0,0-8.25-9.24q6.08-10.83,5-21.47l-1.2-.13q-.74,13.23-5.82,20.74-11.44,1.73-15.62.8,4,3.45,7.14,2.89a50,50,0,0,1,8.71.21l-1-1c-.07-.53.22-.69.84-.47q8.92,5.55,9,7.8a.57.57,0,0,0,.45.66Z"/><path class="cls-14" d="M116.9,183.84a9,9,0,0,1-2.33,3.45,45.13,45.13,0,0,1-2.12,7.35c.77.28,1.23.2,1.37-.22A50.34,50.34,0,0,0,116.9,183.84Z"/><path class="cls-17" d="M114.57,187.29a9,9,0,0,0,2.33-3.45q.57-4.16-.9-5.74Q115.42,183.26,114.57,187.29Z"/><path class="cls-17" d="M111.25,193.52a114.76,114.76,0,0,1,3.35-14.61q-2.7-1.09-8.61.38a16.55,16.55,0,0,1-5.89.44q-4.92,6-2.94,15.88l3.25-10.31,9.53-1.4C111.09,186,111.52,189.22,111.25,193.52Z"/><path class="cls-14" d="M111.25,193.52c.27-4.3-.16-7.51-1.31-9.62l-9.53,1.4-3.25,10.31q5.52-.15,14-1C111.18,194.28,111.21,193.92,111.25,193.52Z"/><path class="cls-8" d="M87.05,190a16.47,16.47,0,0,1,1-6.31q-3.29,1.44-13.61,3-9.37.36,2.75-7.4a102.07,102.07,0,0,1-15.84-2.44,79.66,79.66,0,0,0-10.12,11Q48.34,196.69,87.05,190Z"/><path class="cls-15" d="M74.4,186.62q10.34-1.53,13.61-3a14.17,14.17,0,0,1,3-4.81q-19.48-1.17-28-3.49c-.57.44-1.14.92-1.72,1.42a102.07,102.07,0,0,0,15.84,2.44Q65,187,74.4,186.62Z"/><path class="cls-18" d="M63,175.36q8.49,2.31,28,3.49c.15-.16.3-.32.46-.47a201.86,201.86,0,0,1-27.53-3.71Q63.48,175,63,175.36Z"/><path class="cls-19" d="M63.93,174.67a201.86,201.86,0,0,0,27.53,3.71,17.31,17.31,0,0,1,1.88-1.59l-28.6-2.71Z"/><path class="cls-19" d="M61.12,174.48l1.3-1-3.28-.6c-.45.24-.9.5-1.35.76Z"/><path class="cls-1" d="M42.29,190.63a53.9,53.9,0,0,1,16.85-16l1.33.35.65-.52-3.33-.87A38.6,38.6,0,0,0,42.29,190.63Z"/><path class="cls-15" d="M59.14,174.65a53.9,53.9,0,0,0-16.85,16,50.4,50.4,0,0,0-2.17,5.24l2.29.48A73.14,73.14,0,0,1,60.47,175Z"/><path class="cls-9" d="M87.05,190q-38.71,6.72-35.86-2.18-3.36,4.29-6.93,9.65l11.81,5.36,32.54-4.63A29.22,29.22,0,0,1,87.05,190Z"/><path class="cls-5" d="M89.74,186a16.54,16.54,0,0,0,1.32,11.76l3.2-.25q-2.69-9.75,1.54-16.32A30.38,30.38,0,0,0,89.74,186Z"/><path class="cls-20" d="M89.74,186a30.38,30.38,0,0,1,6.06-4.81,17.06,17.06,0,0,1,1.83-2.37l-4.11,0A19.82,19.82,0,0,0,89.74,186Z"/><path class="cls-19" d="M93.52,178.84l4.11,0c.38-.41.78-.8,1.2-1.19a6.85,6.85,0,0,0-4.86.68C93.81,178.47,93.66,178.66,93.52,178.84Z"/><path class="cls-16" d="M107.49,203a21.2,21.2,0,0,1-4.52.33,24,24,0,0,1-.72,4.71l4.14,1.09Z"/><path class="cls-13" d="M107.49,203l-1.1,6.13,9.62,2.53,1.79-6.38-2.55-2.08C111.12,203.1,108.53,203,107.49,203Z"/><path class="cls-11" d="M99.22,208.24l.8-5.58a8.78,8.78,0,0,1-3-2.17c-.73.75-3,1.13-6.88,1.16l10.78,11.53.52-.57Q98.72,210.44,99.22,208.24Z"/><path class="cls-11" d="M115.6,216.77l-6.06-1.33L120.28,223c2.56-2.73,7.13-9,12.83-17.55a11.54,11.54,0,0,1-3.37,1.56q-.39,4.09-7.76,5.79c.45.6-1.68,1.91-6.37,3.94Z"/><path class="cls-11" d="M129.08,214.68q-.37-1.94-2.72,6.08A22.66,22.66,0,0,0,129.08,214.68Z"/><path class="cls-11" d="M133,211.42a85.41,85.41,0,0,1-4.32,9.31c-.56,1.08-.35,1.46.64,1.13q2.53-2.27,5.59-11.48C134.31,209.58,133.67,209.93,133,211.42Z"/><path class="cls-10" d="M128.72,220.73a85.41,85.41,0,0,0,4.32-9.31c.63-1.49,1.27-1.84,1.91-1q-3.06,9.23-5.59,11.48c-1,.33-1.2-.05-.64-1.13Zm4.39-15.26c-5.7,8.57-10.27,14.82-12.83,17.55l2.89,2q6.49-1.37,9.17-4.09c.52-.76,1-1.52,1.49-2.28q10.66-17,6.34-32.24-.42,2.78-6,2.43,3,7.49-2.63,10.16c.46,3.28-.67,5.45-3.37,6.52q-.43,5.56-8.43,5.24a11.25,11.25,0,0,1-2.74,5.34c3.7-1.68,5.36-2.78,5-3.32q7.36-1.69,7.76-5.79a11.54,11.54,0,0,0,3.37-1.56Zm-6.75,15.29a22.66,22.66,0,0,0,2.72-6.08Q128.71,212.74,126.36,220.76Z"/><path class="cls-11" d="M150.28,210.33q-6.19,5.78-19.09,12.29c.39-.55.78-1.1,1.15-1.65q-2.68,2.73-9.17,4.09l.93.66q24.71.09,24.79.13,8-2.78,8.05-2.62A38.92,38.92,0,0,0,150.28,210.33Z"/><path class="cls-10" d="M131.19,222.62q12.9-6.52,19.09-12.29a38.92,38.92,0,0,1,6.66,12.9q-.1-.15-8.05,2.62l-19.2,5.81q-4,1.38-9.17-3.62a30.5,30.5,0,0,0,8,7.23c1.1,1.52,3.43,1.73,7,.65L170,223q-6.3,2.17-8.45.53l-2.89-3.59.65-1.52-8.49-12.62A127.72,127.72,0,0,1,131.19,222.62Z"/><path class="cls-11" d="M154.48,189.32q7.65,17.27,14.18,25.28a80.86,80.86,0,0,0,7.53-4.26,55.15,55.15,0,0,1-14.39-23.45Q160.32,187,154.48,189.32Z"/><path class="cls-10" d="M168.66,214.6q-6.54-8-14.18-25.28-3,1.22-7.07,3,4.6,10.2,15.87,24.48A42.71,42.71,0,0,0,168.66,214.6Z"/><path class="cls-14" d="M154.48,189.32q5.84-2.35,7.32-2.43a55.15,55.15,0,0,0,14.39,23.45c.6-.38,1.21-.77,1.83-1.18a55.4,55.4,0,0,1-14.92-24.45,98.08,98.08,0,0,0-16.58,5.54c.27.68.57,1.37.89,2.08Q151.51,190.53,154.48,189.32Z"/><path class="cls-10" d="M170,185.42a22,22,0,0,1-1,6.16l2.06,3.6,2.55-4.21Z"/><path class="cls-10" d="M177.47,193.25l-3.91,6,6.07,8.79,1.22-.42,3.49,4.73q-1.59,1.72-4.8,4.61l6.62-4.7-2.71-9-2.87,2,2.11-5.15-.76-3.16C180.78,196,179.3,194.8,177.47,193.25Z"/><path class="cls-11" d="M179.69,210.64a57.47,57.47,0,0,1-10.07,6,17.88,17.88,0,0,0,1.86,1.93,81.63,81.63,0,0,0,9.78-6.27Z"/><path class="cls-10" d="M171.48,218.6a17.88,17.88,0,0,1-1.86-1.93q-3.37,1.67-7.57,3.46l1.72,2.14A75.33,75.33,0,0,0,171.48,218.6Z"/><path class="cls-14" d="M180.52,190.33q8.16,2.28,12.49,3.38l5.68-1.3a9.56,9.56,0,0,0-1.95-2.53Q192,189.18,180.52,190.33Z"/><path class="cls-14" d="M178.8,189.22a49.48,49.48,0,0,1,18.88-.76l2.3,2.83,1.06-1.41-2.22-2.76a2.35,2.35,0,0,0-2.5-1.34q-12.58-.69-18.78,1.24A6.6,6.6,0,0,0,178.8,189.22Z"/><path class="cls-10" d="M175.73,186q12-2.56,20.53-1.52A6,6,0,0,1,200,186l2.3,2.79a33.93,33.93,0,0,0,.26-7.88q-11.15-2.37-28.64,2.41A28.31,28.31,0,0,0,175.73,186Z"/><path class="cls-11" d="M173.91,183.29q17.49-4.77,28.64-2.41a17.12,17.12,0,0,0-2.38-7.59,7.74,7.74,0,0,0-1.53-.81c-.15,1.76-.38,2.81-.68,3.13a22,22,0,0,0,1.27,3.67,5.39,5.39,0,0,1-2.78-2.35l-.13.95q-3.47-5.28,1.38-15.22,2.09-5.1-1.2-4.4a24.67,24.67,0,0,0-6,19.07q-.36-1.72-.6-3.18a9.42,9.42,0,0,0,.06,4q-4.94-2.94-2.08-13.36a10.56,10.56,0,0,1-1.09,1q-3.14,1.86-4.25,8.54a15.78,15.78,0,0,1-.4-3.72,48.93,48.93,0,0,0-1.62,5.34,22,22,0,0,1-.07-3.53,10.92,10.92,0,0,0-1.87,3.55q-1.62-6.27,3-13.73-3.6,3.66-5.48,13-2.25-1.53-3.57-6.32a19.43,19.43,0,0,0-.47,10.59A22.87,22.87,0,0,0,173.91,183.29Z"/><path class="cls-10" d="M187.86,164.76q-2.87,10.43,2.08,13.36a9.42,9.42,0,0,1-.06-4,23.76,23.76,0,0,1-.48-6.28q3.14-6.72,2.27-8.71A22.07,22.07,0,0,1,187.86,164.76Z"/><path class="cls-10" d="M180.43,172.35a19,19,0,0,1,4.67-11.42,2.06,2.06,0,0,0,.18-1,7.75,7.75,0,0,0-3.72,2.19q-4.62,7.46-3,13.73A10.92,10.92,0,0,1,180.43,172.35Z"/><path class="cls-10" d="M176.08,175.15a26,26,0,0,1,.81-12,2.36,2.36,0,0,0-2-.69q.62.87-.36,1.86a23.32,23.32,0,0,0-2.05,4.49Q173.83,173.62,176.08,175.15Z"/><path class="cls-14" d="M172.51,168.83a23.32,23.32,0,0,1,2.05-4.49q1-1,.36-1.86a2.82,2.82,0,0,0-1.65,1.21q-4.08,8-1.23,15.73A19.43,19.43,0,0,1,172.51,168.83Z"/><path class="cls-14" d="M182.88,159.61q-6,2-6.8,15.54,1.88-9.32,5.48-13a7.75,7.75,0,0,1,3.72-2.19C185.17,159.34,184.37,159.22,182.88,159.61Z"/><path class="cls-14" d="M188,162.25c-2.33,1.34-4.27,4.1-5.85,8.29a15.78,15.78,0,0,0,.4,3.72q1.11-6.67,4.25-8.54a10.56,10.56,0,0,0,1.09-1,22.07,22.07,0,0,0,3.81-5.6,1.3,1.3,0,0,0-.88-.78A13.82,13.82,0,0,0,188,162.25Z"/><path class="cls-1" d="M234.22,196.79q-6.51-.27-27.59-.47a15.67,15.67,0,0,1-1,1.39l25.76.55A6.93,6.93,0,0,0,234.22,196.79Z"/><path class="cls-6" d="M206.63,196.32q21.08.19,27.59.47a8.64,8.64,0,0,0,2.32-3.43l-28.85.81A13.82,13.82,0,0,1,206.63,196.32Z"/><path class="cls-9" d="M211.79,185.37q2-1.2,18.41-3-7.12-8.16-17.13-6.58-2.46,1-5.49,2.45c2.15-.12,4-.18,5.63-.17a56.53,56.53,0,0,0-7.71,2.19,112.17,112.17,0,0,1,17.22-.54L207.93,185a15.36,15.36,0,0,1,.47,6.63q5.46-1.54,16.65-1.66-5.4-1-12.06-1.92C211.43,186.83,211,186,211.79,185.37Z"/><path class="cls-8" d="M230.2,182.39q-16.38,1.79-18.41,3c-.76.59-.36,1.46,1.2,2.64q6.66.92,12.06,1.92-11.19.12-16.65,1.66a13,13,0,0,1-.71,2.58l28.85-.81Q238.46,190.71,230.2,182.39Z"/><path class="cls-1" d="M204.74,196.49a16.58,16.58,0,0,0,2-5h0a11,11,0,0,1-3.5,4.64q-1.5.9-6.41.94Q201.62,198.77,204.74,196.49Z"/><path class="cls-6" d="M203.18,196.19a11,11,0,0,0,3.5-4.64l-3.78.79a16.77,16.77,0,0,1-6.13,4.79Q201.68,197.08,203.18,196.19Z"/><path class="cls-8" d="M202.9,192.34l3.78-.79c0-.1.06-.2.08-.3.06-.33.1-.65.13-1a9.21,9.21,0,0,0-.77-4.63A17.78,17.78,0,0,1,202.9,192.34Z"/><path class="cls-8" d="M232.49,182.22l.93-1,1.23-.22q-9.22-11-21.54-6Q224.08,172.49,232.49,182.22Z"/><path class="cls-6" d="M233.42,181.21l-.93,1a39.73,39.73,0,0,1,2.44,3.16l4.31,6.76L236.16,197a35.7,35.7,0,0,1,4.86-4.3Q233.54,181.19,233.42,181.21Z"/><path class="cls-1" d="M233.42,181.21q.11,0,7.6,11.44a35.7,35.7,0,0,0-4.86,4.3,39.8,39.8,0,0,1,7.15-4.46c-1-.9-2-1.79-3-2.69a46.09,46.09,0,0,0-5.69-8.81Z"/><path class="cls-10" d="M224.73,171.82l-1-3.45a37.22,37.22,0,0,0,3.94-3.68v0l-.68-1.77-10.74,5.34,3.5-.7a29.34,29.34,0,0,0-10,6.33q6.14-4.67,12.83-4a11.72,11.72,0,0,0-4.12,1.56A15,15,0,0,1,224.73,171.82Z"/><path class="cls-11" d="M223.69,168.37l1,3.45a22,22,0,0,1,6.88,3.33l-4-10.46A37.22,37.22,0,0,1,223.69,168.37Z"/><path class="cls-3" d="M213.69,167.13,229,158.81l-1.53.06h0q-.7.17-13.61,6.53Z"/><path class="cls-14" d="M244.84,150.79l37.89-2a7.1,7.1,0,0,0-.58,3.29l1.84-.06a13.31,13.31,0,0,1,2-5l-40.84,2C245,149.69,244.92,150.25,244.84,150.79Z"/><path class="cls-11" d="M282.73,148.83l-37.89,2a22.09,22.09,0,0,0-.18,2.7l37.49-1.37A7.1,7.1,0,0,1,282.73,148.83Z"/><path class="cls-11" d="M282.73,153.8q-6.62.47-38.19,1.34a4.71,4.71,0,0,0,.46,1.67q14.64-.23,39.48-1A3.34,3.34,0,0,1,282.73,153.8Z"/><path class="cls-14" d="M282.73,153.8a3.34,3.34,0,0,0,1.75,2l1.73-.06a6.3,6.3,0,0,1-2-2.08C284,153.69,283.47,153.74,282.73,153.8Z"/><path class="cls-14" d="M288.09,147.33q3.29,3.34.79,7.8a4.58,4.58,0,0,0,2.58-4.32,4.88,4.88,0,0,0-3.13-4.09Z"/><path class="cls-13" d="M193.28,123.78q-6.6-2.88-6.84-9.24a5.43,5.43,0,0,0,0,6.59A7.19,7.19,0,0,0,193.28,123.78Z"/><path class="cls-13" d="M189.87,118.11a6.2,6.2,0,0,0,6.51,3.75,9,9,0,0,1,.71-4,2.53,2.53,0,0,1-2.87-.81,1.91,1.91,0,0,1,.31-2.65,2.57,2.57,0,0,1,3-.2q-2.16-3.74-6.86-2A5.21,5.21,0,0,0,189.87,118.11Z"/><path class="cls-14" d="M194.22,117.05a2.53,2.53,0,0,0,2.87.81,9,9,0,0,0-.71,4,4.63,4.63,0,0,0,.61-.17c2.62-.92,3.68-4,2.37-6.89s-4.5-4.49-7.12-3.58a4.31,4.31,0,0,0-1.59,1q4.71-1.73,6.86,2a2.57,2.57,0,0,0-3,.2A1.91,1.91,0,0,0,194.22,117.05Z"/><path class="cls-14" d="M98.33,174.33c.23-2.33.43-4.36.6-6.11l-1.31.1-.27,6.07Z"/><path class="cls-14" d="M97.62,168.32l1.31-.1q.76-7.72.76-7.75l-1.72.32Z"/><polygon class="cls-14" points="78.78 162.02 106.32 156.85 197.74 154.25 201.28 154.15 201.3 152.9 197.8 152.98 107.14 154.92 79.02 160.47 78.78 162.02"/><path class="cls-14" d="M177.72,212.08l1.73,1.57c.61-.43,1.21-.87,1.81-1.32l-1.57-1.69C179.1,211.11,178.44,211.59,177.72,212.08Z"/><path class="cls-10" d="M197.7,162.66q1.31-2.86.49-4.13-5.69,9.91-4.53,17.34l2.16,4.25a6.57,6.57,0,0,0,.5-2.24Q192.86,172.8,197.7,162.66Z"/><path class="cls-21" d="M50.12,185.15a24.33,24.33,0,0,1-1.21-2.52,56.18,56.18,0,0,0-6.62,8,50.4,50.4,0,0,0-2.17,5.24l2.29.48A67.66,67.66,0,0,1,50.12,185.15Z"/><path class="cls-22" d="M42.29,190.63a56.18,56.18,0,0,1,6.62-8,3,3,0,0,1-.34-1.5A40.71,40.71,0,0,0,42.29,190.63Z"/><path class="cls-2" d="M87.26,84.91l10,9.37q18.7,18.1,26.61,20.08,8.16.24,28.78-8.62,17.42-10.27,35.3-9.06l.1-2.23q-2.58-.39-7-.74-1.23,0-4.35-9.45a43.84,43.84,0,0,1-3.37-15.15q4.14-11.51,6.89-20.12,3.24-8.54-2.35-17.73-10.22-13-12.86-19.53a5.43,5.43,0,0,1-.95-3.54c.55-2.42-.16-3.92-2.14-4.47Q128.59,1.8,105.19,8.1a8,8,0,0,0-3.92,3.77q-5.74,8.55-5.94,8.54l-2,3.08-.63,10,2-.31q-.72,16.14-3.4,21,1.29,11.6.67,11.11Q87.26,84.92,87.26,84.91Z"/><path class="cls-6" d="M118.77,106.11,101.12,90.24a18.66,18.66,0,0,0,2.09,3.47Q94.39,87,93.38,74.15l-1.22,3.41Q92.69,81.82,96,88a172.62,172.62,0,0,0,26.38,23.84l8.6-5.5-4.41,1.21C123.36,108.4,120.74,107.93,118.77,106.11Z"/><path class="cls-5" d="M101.12,90.24l17.65,15.87c2,1.82,4.59,2.29,7.84,1.4L131,106.3l-8.6,5.5q13.19-.54,28.51-11a9.37,9.37,0,0,0,.92-3.65A75.16,75.16,0,0,1,141.4,105q8.86-8.05,9.67-13.93c-10.35,7.73-20.51,12.54-28,14-6-2-15.7-12.84-19.7-17.42l-3.64-1.22A27.19,27.19,0,0,0,101.12,90.24Z"/><path class="cls-23" d="M122.42,111.8A172.62,172.62,0,0,1,96,88l-4.82-5.74L90.49,84A172.76,172.76,0,0,0,122.42,111.8Z"/><path class="cls-6" d="M150.93,100.85q-15.31,10.4-28.51,11,4.74,2.64,25.1-6.69A13.37,13.37,0,0,0,150.93,100.85Z"/><path class="cls-8" d="M123.5,103.19q24.1-9.51,29.21-17.73c2.15-4,2.7-7.7,1.68-11a65,65,0,0,1-13.12,11.71q8.86-8.57,10.28-16.6l-1.34-2.36Q148,73.7,114.43,70l3,7.47q3.36,2.52,14.45,6.27-10.16.36-17.12-5.38l3.63,11.54,7.06,8.71L122.56,97a55.75,55.75,0,0,1-15.52-8Z"/><path class="cls-6" d="M118.38,89.93l-3.63-11.54q7,5.74,17.12,5.38Q120.79,80,117.42,77.5l-3-7.47q33.54,3.68,35.78-2.84-18.57,2-30.88,0a28,28,0,0,1-7.42-.42l-5.24,6.49q5.65,3.61,9.71,4.2a44,44,0,0,1-13.91-2.91L105.39,85l17.17,12,2.88,1.69Z"/><path class="cls-4" d="M106.67,73.26l5.24-6.49a28,28,0,0,0,7.42.42,49.73,49.73,0,0,1-8.07-2q-3.51,3.89-11.78,5.07,3.72,9.82,5.91,14.64l-2.92-10.4a44,44,0,0,0,13.91,2.91Q112.32,76.88,106.67,73.26Z"/><path class="cls-24" d="M99.74,69a27.52,27.52,0,0,0,9.43-4.13l.71-3.13a8.51,8.51,0,0,1-2.79,2q-4.82,3.81-7.67,4.08C99.52,68.2,99.63,68.59,99.74,69Z"/><path class="cls-25" d="M99.42,67.82q2.85-.27,7.67-4.08a8.19,8.19,0,0,1-2.39.64,3.88,3.88,0,0,0,1.59-1.09c-1.62.29-2.77.14-3.42-.44,1,.28,2.44-.12,4.37-1.17a22.21,22.21,0,0,1-9.32-1.15C97.87,61.51,98.36,63.94,99.42,67.82Z"/><path class="cls-26" d="M96.56,66.39l-1-5.47A8,8,0,0,1,94.87,64,8.2,8.2,0,0,1,96.56,66.39Z"/><path class="cls-24" d="M98.27,59.14l3.4-1.81-4-.35,0,0C98.55,57.42,98.3,58.31,98.27,59.14Z"/><polygon class="cls-24" points="108.59 57.46 110.07 57.78 110.06 57.22 108.59 57.46"/><path class="cls-24" d="M112,57.35l0,1.09,5.09-.23c-.65-.46-.51-.8,2.54-.35,0,0,5.25-1.71,6.08-1.89S112,57.35,112,57.35Z"/><path class="cls-25" d="M117.11,58.21l-5.09.23V59a19.77,19.77,0,0,1-.47,4.38q27.67,3.9,32.35,1.54l-2.2-.71,2.29-.81a15,15,0,0,0,3.78-1.84s-8,1.33-8.6,1a7.77,7.77,0,0,0,2.38-1.69,13.22,13.22,0,0,0-2.26-3.1,10.92,10.92,0,0,1-1.31,0s-1,3.71-4.51,4.38a10.89,10.89,0,0,0,2.29-3.26s-3.95,4.43-10.9,1.74c0,0,2.39,2.31,7.27,2.64,0,0-5.08,1.61-12.76-3.88A15,15,0,0,1,117.11,58.21Z"/><path class="cls-24" d="M136.75,54.64l1.6,1.9c.51.1.93.16,1.2.19.75.09,1.9.2,1.9.2s-.21.62-2.16.76a13.22,13.22,0,0,1,2.26,3.1,1.58,1.58,0,0,0,.42-1.12,8.21,8.21,0,0,1,.54-3.25l-3.07-4.12-8.84,2.46a24.91,24.91,0,0,1,4,.66Z"/><path class="cls-25" d="M138.35,56.54l-1.6-1.9-2.2.78a5.72,5.72,0,0,1,.7.24A17.86,17.86,0,0,0,138.35,56.54Z"/><path class="cls-24" d="M148.51,64.24l-5.31-.59.79-.29-2.29.81,2.2.71q-4.68,2.36-32.35-1.54c0,.27-.09.54-.14.8,0,0,23.8,3.38,26.07,3.24s9.73-.88,11.62-2.11Z"/><path class="cls-1" d="M109.9,26.19a99.86,99.86,0,0,1,45.68,43.05l-1.9-5.34c.71.92,2.1,2.49,4.14,4.71Q145.2,44.72,113.34,24.87Z"/><path class="cls-8" d="M131.27,43.83a83.87,83.87,0,0,0-22.94-17L102,33.35l-.66,12.06q18.69.42,26-1.54A51.88,51.88,0,0,1,116.75,47,57.83,57.83,0,0,0,131.27,43.83Z"/><path class="cls-6" d="M101.37,45.41,102,33.35l6.3-6.57q-6.48,3.73-8.12,5.84L98.9,47.33A118.66,118.66,0,0,0,116.75,47a51.88,51.88,0,0,0,10.65-3.14Q120.07,45.84,101.37,45.41Z"/><path class="cls-27" d="M98.9,47.33l1.31-14.71q-1.8,9.9-2.65,14.64Z"/><path class="cls-6" d="M100.82,48.86l-2.14-.17-1.52,6.2q11.28,1.63,28.9-1.38a107.59,107.59,0,0,1-26.41-.4Z"/><path class="cls-27" d="M97.16,54.89l1.52-6.2-1.5-.14-1.49,6.1Z"/><path class="cls-8" d="M100.82,48.86l-1.17,4.25a107.59,107.59,0,0,0,26.41.4q5.77-1,12.24-2.47l-5.5-5.61A87.4,87.4,0,0,1,100.82,48.86Z"/><path class="cls-6" d="M156.4,70.75a7.13,7.13,0,0,1,1.71,3.37c-.55-1.14-1.12-2.26-1.71-3.37ZM157,82.86q-.54,7.1-5.49,20.79l3.75-1.87q5.12-19.5,4.57-35.74Q150,43.6,121.66,21.66l-8.32,3.21q31.86,19.85,44.48,43.74c-2-2.22-3.43-3.79-4.14-4.71l1.9,5.34c.28.5.55,1,.82,1.51a12.33,12.33,0,0,0-2.32-2Q158.23,73.85,157,82.86Z"/><path class="cls-5" d="M159.82,66q.56,16.23-4.57,35.74L160.87,99,164,79.25A62.2,62.2,0,0,0,159.82,66Z"/><path class="cls-5" d="M166.52,83.93l-3.38,13.8a65.42,65.42,0,0,1,13.91-3.91l-7.86-5.09a20,20,0,0,1,6.58,1.42,75.49,75.49,0,0,1-4.61-13.73q-.63,3.75-4,11.15Z"/><path class="cls-28" d="M122.72,19.52q32.82,23.07,43,56.37a127.75,127.75,0,0,0,2.44-42.24,26.94,26.94,0,0,1,2,6Q169,26.75,158.57,16.71q3.63,3.52,5.15,19l-4-11.17,2.68,18-4.93-13.9-.09,8.92Q147.92,31.55,122.72,19.52Z"/><path class="cls-6" d="M170.19,39.6q3.12,13.83-2.45,40.84l8.94-30a21.48,21.48,0,0,0,1.53-8.57q-15.63-21.18-18.8-34.16l-9,0L143,12.93,127,8.67l-18,2.22q7.27,4.11,13.71,8.63,25.22,12,34.64,18l.09-8.92,4.93,13.9-2.68-18,4,11.17q-1.53-15.47-5.15-19Q169,26.74,170.19,39.6Z"/><path class="cls-4" d="M127,8.67l16,4.26,7.42-5.32,9,0q3.18,13,18.8,34.16A9,9,0,0,0,176.52,37Q173.67,32.06,166,19.86A32.19,32.19,0,0,1,161.22,6.5q-20.65-1.27-54,3.38c.61.33,1.21.67,1.81,1Z"/><path class="cls-6" d="M119.2,20.06a58.84,58.84,0,0,0-12.33-8.32A89.46,89.46,0,0,0,98,27.91Q112.29,21.54,119.2,20.06Z"/><path class="cls-4" d="M98,27.91a89.46,89.46,0,0,1,8.83-16.17l-1.06-.57c-4.78,4.18-5.7,8.9-9.49,13.44l.51,5.33q14.4-6.89,22.89-9.36c-.16-.17-.34-.34-.52-.52Q112.29,21.53,98,27.91Z"/><path class="cls-13" d="M123.68,58.7c0,.16.24.34.87.49a23.87,23.87,0,0,0,2.77.39,10,10,0,0,0,3,0,5.93,5.93,0,0,0,2.23-1.17,11.43,11.43,0,0,1,1.91-1.32c.81-.41,1.93-.76,3.51-1.46A38.89,38.89,0,0,0,144.32,52c2.74-1.86,6.17-4.55,7.92-5.93s1.83-1.45.22-.24-4.89,3.69-7.29,5.26a30.06,30.06,0,0,1-5.37,2.84,41.45,41.45,0,0,1-3.88,1.49c-1.08.32-1.86.41-1.93.26s.59-.51,1.23-.77,1.26-.42,2.23-.79a18.85,18.85,0,0,0,3.73-2,38.92,38.92,0,0,0,3.52-2.79c.46-.41-.24.15-1.07.7s-1.83,1.07-2.81,1.57L138.07,53c-.78.4-1.35.71-1.84.91a15.06,15.06,0,0,0-1.65.62c-.76.35-1.86,1-2.54,1.35a3,3,0,0,1-1.46.48,17.22,17.22,0,0,0-1.93.09,9.37,9.37,0,0,0-2.08.69c-.78.32-1.7.71-2.24,1s-.68.42-.65.58Zm9.6-2.51c-.14.06-.45.18-.65.24s-.31.06-.23,0A2.38,2.38,0,0,1,133,56a2.05,2.05,0,0,1,.5-.19c.12,0,.17,0,.14.05a1.7,1.7,0,0,1-.17.23C133.39,56.13,133.42,56.13,133.28,56.19Z"/><path class="cls-29" d="M103.05,60.25a14.43,14.43,0,0,0,1.76-.13,5.77,5.77,0,0,0,1.71-.33c.46-.21.8-.59.79-.84s-.35-.4-.62-.48-.46-.08-.54-.38a2.32,2.32,0,0,1,.15-1.31,2,2,0,0,1,1.09-1,24.76,24.76,0,0,0,2.4-1.2,34.84,34.84,0,0,0,3.61-2.51,19.13,19.13,0,0,0,2.74-2.55,12.51,12.51,0,0,0,1.4-1.9c0-.13-.45.52-1.5,1.48a33.23,33.23,0,0,1-4.2,3.22,46.56,46.56,0,0,1-4.15,2.25,7.83,7.83,0,0,0-2.21,1.47c-.48.52-.82,1.16-1.17,1.56a2.94,2.94,0,0,1-1.19.78h0c-.51.23-1.15.51-1.56.75s-.58.44-.34.63a3.37,3.37,0,0,0,1.57.41Z"/><path class="cls-2" d="M54.27,293.58l-5.47-5.11.87-24a16.21,16.21,0,0,1,.59-3.77c-10.06.72-22.58,1.72-33.9,2.53l-7.31-7.86,1-26.8A16.77,16.77,0,0,1,16.51,216l.14-.11a16,16,0,0,1,8.53-3.3L258.64,196c-.23,4.71-.22,40.17-4,46.23A14,14,0,0,1,243.31,249l-26.42,1.88L216,271a18.82,18.82,0,0,1-3.7,10.43c-.13.18-.27.35-.4.52Z"/><path class="cls-14" d="M41.62,226.35,41,247.4a7.26,7.26,0,0,1-1.39,4A4.83,4.83,0,0,1,36,253.51l-13.14.93L18,249.86l.8-22.05a4.64,4.64,0,0,1,2-3.54,7.4,7.4,0,0,1,3.94-1.5l12-.85,4.89,4.43Zm26.73-.06-.24,9a3,3,0,0,1-1.3,2.5,9,9,0,0,1-3,1l-8.38.59c0,1.31-.08,3.06-.14,5.24l2.59-.18-.1,1.53q-.21,4.05-4.27,4.34l-9.62.68L47.09,245l.61-17.63-4.5-3.92L63.41,222l4.94,4.26Zm25.13-1.78-4.94-4.26-20.21,1.43,4.5,3.92-.61,17.63-3.17,5.93,9.62-.68q4.06-.28,4.27-4.35l.1-1.53-2.59.19c.06-2.18.1-3.93.14-5.24L89,237a9,9,0,0,0,3-1,3,3,0,0,0,1.3-2.5l.24-9Zm23.62-2.12-.58,18.39a6.3,6.3,0,0,1-1.21,3.52,4.22,4.22,0,0,1-3.11,1.81l-11.48.81-4.28-4,.7-19.25a4.08,4.08,0,0,1,1.74-3.09,6.41,6.41,0,0,1,3.45-1.31l10.5-.74,4.27,3.86Zm23.45-5.82-.3,8.09-6.89.49.08-2.34-4.53.32-.26,5.24,8.57-.6a3,3,0,0,1,3.43,2.23,5.54,5.54,0,0,1,.24,1.92l-.32,7.35a6.37,6.37,0,0,1-1,3.38,3.41,3.41,0,0,1-2.68,1.71l-16.13,1.14L121,237l7.56-.53-.08,2.65,4.27-.3.21-5.69-7.65.54-4.66-4,.25-7.68a4,4,0,0,1,1.81-3.09,6.22,6.22,0,0,1,3.38-1.3l14.42-1Zm15.14-1.08-.23,5.31-1.48.11-.56,16.71,2.56-.19-.09,1.54q-.21,4-4.27,4.34l-8.94.64,3.17-5.94.6-17.63-4.5-3.91,13.74-1Zm26.56-1.84-.25,8.47-6.38.45.21-3-2.59.18-.57,16.47,2.59-.18-.07,1.52a4.47,4.47,0,0,1-1,3.09c-.79.74-2.44,1.21-4.95,1.38l-7.95.57,3.17-5.93,1-16.37-2.38.17-.22,3-6.35.45.64-8.53,25.09-1.74Zm15.09-1.11-.24,5.31-1.47.11-.56,16.71,2.56-.19-.09,1.53q-.21,4.06-4.27,4.35l-9,.63,3.17-5.93.61-17.63-4.5-3.92,13.74-1Zm22.6,2.56-.58,18.39a6.28,6.28,0,0,1-1.21,3.53,4.24,4.24,0,0,1-3.11,1.8l-11.47.81-4.29-4,.7-19.25a4,4,0,0,1,1.75-3.08,6.27,6.27,0,0,1,3.44-1.31l10.5-.75,4.27,3.86Zm31.76-8.41-10.92.77-.44,15.7-8.12-15.09-13.69,1,5.16,4.48-.7,20.19-3.63,6.8,11.87-.84.59-16.1L240,239.05l3.85-.27c2-.14,3.3-.77,4-1.9a11.4,11.4,0,0,0,1-4.81l.64-18.49,1.92-.14.34-6.75ZM78.52,262.42l-.2,4.38-7.86.56.09-2.9-4.32.31-.6,16.3,4.32-.31.17-4.37-2.15.15.22-5.17,10-.71-.44,10.16a6.15,6.15,0,0,1-1.25,3.53,4.1,4.1,0,0,1-3.07,1.8L62,287l-4.28-4,.7-19.26a4,4,0,0,1,1.77-3.08,6.18,6.18,0,0,1,3.41-1.31l10.65-.75,4.28,3.85Zm26-6,0,5.54-2.33.16,2.75,16.24,2.44-.18-.06,1.52a4.44,4.44,0,0,1-1,3.09c-.79.75-2.45,1.21-5,1.39l-4.18.29-.83-7.12-4.54.32-1.28,7.27-11.32.81,3.63-4.84,4.61-19.05-4-3.94,21.15-1.5Zm-10,6-1.74,9.78,2.89-.21-1.15-9.57Zm47.56-8.63-.29,5.89-1.68.12-.68,16.14,2.56-.18a10,10,0,0,1-.88,4.21c-.6,1-1.76,1.54-3.48,1.66l-5.89.42.35-14.12-6.71,10.79-6.15-10.36-.35,14.6-10.5.75,3.17-5.94.6-17.63-4.5-3.91,11-.78,6.81,11.05,7.29-12.05,9.32-.66Zm13.89-1-.24,5.31-1.47.11-.56,16.71,2.56-.19-.09,1.53c-.14,2.71-1.57,4.16-4.27,4.35l-8.95.64,3.17-5.94.61-17.63-4.5-3.91,13.74-1Zm29.4-2.08-.3,5.9-1.68.12-.55,16.14a10,10,0,0,1-.89,4.2c-.59,1-1.76,1.54-3.48,1.66l-3.36.24L168,265.43l-.52,14.06-10.35.73,3.17-5.94.6-17.62-4.5-3.92,11.95-.85,7.09,13.18.38-13.71,9.54-.67ZM208,253.24l-.2,4.38-7.85.56.08-2.89-4.32.3-.6,16.3,4.33-.3.16-4.38-2.14.15.22-5.17,10-.71-.44,10.16a6.14,6.14,0,0,1-1.24,3.53A4.09,4.09,0,0,1,203,277l-11.47.82-4.29-4,.7-19.25a4,4,0,0,1,1.77-3.09,6.26,6.26,0,0,1,3.42-1.31l10.65-.75,4.27,3.85Zm4.11-36.11-4.33.31-.6,16.3,4.33-.31.6-16.3Zm-102.85,7.29-4.32.3-.6,16.3,4.32-.3.6-16.3Zm-24,1.7-.16,6-4.51.32.14-6,4.53-.32ZM60.19,227.9l-4.53.32-.14,6,4.51-.32.16-6Zm-27.52.77-5,.35L27,247.69l4.95-.36Z"/><path class="cls-17" d="M19.48,239.05l-.37,10.09,4.22,3.94,12.74-.9a3.59,3.59,0,0,0,2.67-1.53,5.6,5.6,0,0,0,1.09-3.15l.31-9.92-6.69.48-.39,10.52-7.21.51.39-10.52-6.76.48Zm29-2.06,18.44-1.31a1.32,1.32,0,0,1-.6.93,8.51,8.51,0,0,1-2.5.81l-9.48.67,0,1.36c0,1.74-.09,3.49-.14,5.23l0,1.29,2.54-.18V246c-.11,2.26-1.32,2.84-3.07,3l-7.64.54,2.24-4.2L48.5,237Zm25.13-1.78,18.44-1.31a1.3,1.3,0,0,1-.61.93,8.36,8.36,0,0,1-2.49.81l-9.48.67,0,1.36-.15,5.23,0,1.29,2.54-.18v.18c-.11,2.26-1.32,2.84-3.07,3l-7.64.54,2.24-4.2.29-8.29Zm24.28-1.72,5.61-.4-.34,9.34,6.59-.47.34-9.33,5.55-.4-.27,8.65a4.64,4.64,0,0,1-.91,2.63,3,3,0,0,1-2.22,1.27l-11.07.78-3.6-3.35.32-8.72Zm27-1.91,14.65-1v0a4.17,4.17,0,0,1,.18,1.42l-.33,7.36a5,5,0,0,1-.75,2.56,2.2,2.2,0,0,1-1.76,1.11l-15,1.07.21-5.83,5.31-.38-.07,2.65,6.51-.46.31-8.33-8.38.59-.88-.76ZM147.25,230l5.31-.37-.31,9.4,2.52-.18V239c-.12,2.26-1.33,2.84-3.08,3l-7,.49,2.25-4.2.28-8.29Zm18.84-1.33,5.73-.41-.33,9.41,2.58-.18v.19a3.85,3.85,0,0,1-.5,2c-.8.75-3.32,1-4.25,1.06l-6,.42,2.23-4.17.51-8.33ZM188.9,227l5.31-.37-.32,9.4,2.53-.18v.18c-.12,2.25-1.33,2.84-3.08,3l-7,.5,2.24-4.2.29-8.29Zm11.85-.84,5.61-.4-.34,9.34,6.59-.47.34-9.33,5.56-.4-.28,8.65a4.67,4.67,0,0,1-.91,2.64,3,3,0,0,1-2.22,1.26l-11.07.79-3.6-3.36.32-8.72Zm23.69-1.68,6.23-.44-.53,14.35-8.73.62,2.7-5.06.33-9.47Zm8.94-.63,5.72-.41,2.24,4.16.12-4.32,6.53-.47-.32,9.3a12.07,12.07,0,0,1-.77,4c-.6,1-2.19,1.21-3,1.27l-3.23.23Z"/><path class="cls-17" d="M59.13,274.91l5.61-.4-.29,8L71,282l.27-7-2.14.15,0-.94,7.77-.55-.31,7.26a4.64,4.64,0,0,1-.93,2.64,2.91,2.91,0,0,1-2.2,1.29l-11.07.78-3.6-3.36.27-7.34ZM85.87,273l5.73-.41-.18,1,5.58-.4-.12-1,5.73-.41,1.35,7.92,2.19-.15v.19a3.94,3.94,0,0,1-.49,2c-.81.75-3.33,1-4.25,1.06l-3.25.23L97.31,276l-6.43.45-1.28,7.28-7.87.55,2.09-2.78L85.87,273Zm27.05-1.92,5.14-.36-.26,11-7.36.52,2.25-4.2.23-6.92Zm9-.64,7.57-.53-4,6.49-3.53-6Zm11.23-.79,5.41-.39-.34,8,2.49-.17a6.16,6.16,0,0,1-.51,2.08c-.49.82-1.85,1-2.53,1.06l-4.79.34.27-11Zm14.31-1,5.31-.37-.27,8,2.53-.18v.18c-.12,2.26-1.33,2.84-3.08,3l-7,.49,2.24-4.2.24-6.92Zm14.18-1,5.15-.37-.4,11-7.23.51,2.25-4.19.23-6.92Zm8.59-.61,4.67-.33,1.53,2.85.08-3,5.41-.38-.23,6.73a10.86,10.86,0,0,1-.64,3.42c-.49.8-1.86,1-2.54,1l-2.74.2L170.27,267Zm18.36-1.3,5.61-.4-.29,8,6.59-.47.27-7-2.15.16,0-.95,7.77-.55-.31,7.26a4.57,4.57,0,0,1-.93,2.64,2.88,2.88,0,0,1-2.2,1.29l-11.07.78-3.6-3.35Z"/><path class="cls-14" d="M150.82,255.56Q63.37,245.9,10,198.81,89.16,246.92,150.82,255.56Z"/><path class="cls-2" d="M150.82,255.56Q94.66,240.08,10,198.81,89.16,246.92,150.82,255.56Z"/><path class="cls-14" d="M121.85,279.42q83.9-27,127.19-83.94Q180.67,258.54,121.85,279.42Z"/><path class="cls-2" d="M121.85,279.42Q174,252.94,249,195.48,180.67,258.54,121.85,279.42Z"/><path class="cls-4" d="M40.85,184q-5.24-10-19.35-44.22L24.3,141l-2.14-3.47,7.43-.42-5.12-1.69q18-13.49,58.26-29.32l-1.58-1.69a280.86,280.86,0,0,0-64.34,31.28c6.89,17.05,14.53,33.87,23,50.23C40.15,185.29,40.49,184.65,40.85,184Z"/><polygon class="cls-2" points="42.59 148.04 43.49 143.13 32.1 140.85 42.59 148.04"/><path class="cls-4" d="M39.85,148.15,47,163.5l-1.19,8a78.55,78.55,0,0,1,3.22-8q-3.88-8.09-7.51-16.28l-9.37-6.42Z"/><path class="cls-5" d="M63.35,128.81l-5.56,4.92q5-2.39,10.17-4.55,1.67-2.91,3.81-6.34a4.75,4.75,0,0,1-1.26-3l12.22-13.77L79,107.55l-16.16,16,3.3.77-6.52,4.48Z"/><polygon class="cls-5" points="63.87 117.84 52.89 123.16 37.37 131.7 46.53 129.5 33.58 136.35 54.38 127.22 48.76 127.73 63.87 117.84"/><polygon class="cls-5" points="186.1 91.25 198.25 91.22 215.84 92.09 206.65 94.15 221.23 94.62 198.61 95.54 203.89 93.53 186.1 91.25"/><polygon class="cls-2" points="219.13 106.01 216.85 101.6 227.07 95.97 219.13 106.01"/><path class="cls-4" d="M235.28,89.34q-1.56,37.16-7.08,60.26l4.27-.4A312.6,312.6,0,0,0,239.3,82a617.61,617.61,0,0,0-62.41,2.62c.43,1.31.84,2.48,1.22,3.5q32-3,52.71-2.17l-5.12,5L234,86.89l-1.82,4.57Z"/></g></g></svg>